# xmcd
#
# Track frame offsets: 
#        150
#        12353
#        24915
#        38774
#        53190
#        66293
#        77599
#        86937
#        97093
#        108788
#        121180
#
# Disc length: 1771 seconds
#
# Revision: 0
# Processed by: cddbd v1.5.2PL0 Copyright (c) Steve Scherf et al.
# Submitted via: ExactAudioCopy v0.95b4
#
DISCID=8306e90b
DTITLE=Dave and Sugar - Greatest Hits
DYEAR=1981
DGENRE=Pop Country
TTITLE0=It's A Heartache
TTITLE1=Queen of the silver Dollar
TTITLE2=Can't Help But Wonder
TTITLE3=Don't Throw It All Away
TTITLE4=My World Begins and Ends With You
TTITLE5=Golden Tears
TTITLE6=Gotta' Quit Lookin' At You Baby
TTITLE7=Baby Take Your Coat Off
TTITLE8=I'm Knee Deep In Loving You
TTITLE9=The Door Is Always Open
TTITLE10=Tear Time
EXTD=
EXTT0=
EXTT1=
EXTT2=
EXTT3=
EXTT4=
EXTT5=
EXTT6=
EXTT7=
EXTT8=
EXTT9=
EXTT10=
PLAYORDER=
